<?xml version="1.0" encoding="UTF-8" standalone="no"?>
<!DOCTYPE svg PUBLIC "-//W3C//DTD SVG 1.1//EN" "http://www.w3.org/Graphics/SVG/1.1/DTD/svg11.dtd">
<svg xmlns="http://www.w3.org/2000/svg" version="1.1" viewBox="0.00 0.00 100.00 100.00">
<g stroke-width="2.00" fill="none" stroke-linecap="butt">
<path stroke="#489dd8" vector-effect="non-scaling-stroke" d="
  M 84.72 39.74
  L 51.15 19.68
  A 2.29 2.28 -44.7 0 0 48.80 19.67
  L 14.89 39.87"
/>
<path stroke="#a857c5" vector-effect="non-scaling-stroke" d="
  M 83.20 59.41
  Q 82.21 59.35 81.73 59.06
  Q 66.20 49.69 50.75 40.44
  A 1.48 1.47 -44.5 0 0 49.26 40.43
  L 16.75 59.49"
/>
<path stroke="#f266ad" vector-effect="non-scaling-stroke" d="
  M 84.60 60.58
  L 97.49 68.64
  Q 97.93 68.91 97.92 69.43
  Q 97.91 69.86 98.19 70.20
  Q 98.55 70.65 98.05 70.95
  L 51.50 98.83
  A 3.06 3.06 0.0 0 1 48.35 98.84
  L 3.35 72.17"
/>
<path stroke="#f266ad" vector-effect="non-scaling-stroke" d="
  M 2.63 68.20
  Q 9.65 65.22 15.70 60.38"
/>
</g>
<path fill="#2dd4bf" d="
  M 49.27 0.00
  L 50.90 0.00
  L 100.00 29.52
  L 100.00 30.47
  L 84.72 39.74
  L 51.15 19.68
  A 2.29 2.28 -44.7 0 0 48.80 19.67
  L 14.89 39.87
  Q 14.89 39.75 14.88 39.62
  Q 14.87 39.50 14.77 39.44
  L 0.00 30.44
  L 0.00 29.57
  L 49.27 0.00
  Z"
/>
<path fill="#6366f1" d="
  M 84.72 39.74
  L 100.00 48.69
  L 100.00 49.39
  L 83.20 59.41
  Q 82.21 59.35 81.73 59.06
  Q 66.20 49.69 50.75 40.44
  A 1.48 1.47 -44.5 0 0 49.26 40.43
  L 16.75 59.49
  L 0.00 49.39
  L 0.00 48.71
  L 14.89 39.87
  L 48.80 19.67
  A 2.29 2.28 -44.7 0 1 51.15 19.68
  L 84.72 39.74
  Z"
/>
<path fill="#ec4899" d="
  M 83.20 59.41
  Q 82.68 59.58 84.60 60.58
  L 97.49 68.64
  Q 97.93 68.91 97.92 69.43
  Q 97.91 69.86 98.19 70.20
  Q 98.55 70.65 98.05 70.95
  L 51.50 98.83
  A 3.06 3.06 0.0 0 1 48.35 98.84
  L 3.35 72.17
  Q 1.74 71.74 0.00 70.38
  L 0.00 69.53
  L 2.63 68.20
  Q 9.65 65.22 15.70 60.38
  Q 16.72 59.69 16.75 59.49
  L 49.26 40.43
  A 1.48 1.47 -44.5 0 1 50.75 40.44
  Q 66.20 49.69 81.73 59.06
  Q 82.21 59.35 83.20 59.41
  Z"
/>
<path fill="#f784c1" d="
  M 15.70 60.38
  Q 9.65 65.22 2.63 68.20
  L 15.70 60.38
  Z"
/>
<path fill="#f784c1" d="
  M 84.60 60.58
  L 100.00 69.69
  L 100.00 70.52
  L 51.03 100.00
  L 49.12 100.00
  L 3.35 72.17
  L 48.35 98.84
  A 3.06 3.06 0.0 0 0 51.50 98.83
  L 98.05 70.95
  Q 98.55 70.65 98.19 70.20
  Q 97.91 69.86 97.92 69.43
  Q 97.93 68.91 97.49 68.64
  L 84.60 60.58
  Z"
/>
</svg>
